<?xml version="1.0" encoding="UTF-8" standalone="no"?>
<!DOCTYPE svg PUBLIC "-//W3C//DTD SVG 1.1//EN"
 "http://www.w3.org/Graphics/SVG/1.1/DTD/svg11.dtd">
<!-- Generated by graphviz version 2.43.0 (0)
 -->
<!-- Title: G Pages: 1 -->
<svg width="995pt" height="225pt"
 viewBox="0.00 0.00 995.20 225.20" xmlns="http://www.w3.org/2000/svg" xmlns:xlink="http://www.w3.org/1999/xlink">
<g id="graph0" class="graph" transform="scale(1 1) rotate(0) translate(21.6 203.6)">
<title>G</title>
<polygon fill="#111111" stroke="transparent" points="-21.6,21.6 -21.6,-203.6 973.6,-203.6 973.6,21.6 -21.6,21.6"/>
<!-- App.vue -->
<g id="node1" class="node">
<title>App.vue</title>
<path fill="none" stroke="#c6c5fe" d="M171.83,-135C171.83,-135 121.17,-135 121.17,-135 117.33,-135 113.5,-131.17 113.5,-127.33 113.5,-127.33 113.5,-119.67 113.5,-119.67 113.5,-115.83 117.33,-112 121.17,-112 121.17,-112 171.83,-112 171.83,-112 175.67,-112 179.5,-115.83 179.5,-119.67 179.5,-119.67 179.5,-127.33 179.5,-127.33 179.5,-131.17 175.67,-135 171.83,-135"/>
<text text-anchor="middle" x="146.5" y="-119.8" font-family="Arial" font-size="14.00" fill="#c6c5fe">App.vue</text>
</g>
<!-- components/HeaderComponent.vue -->
<g id="node2" class="node">
<title>components/HeaderComponent.vue</title>
<path fill="none" stroke="#cfffac" d="M460.33,-146C460.33,-146 240.67,-146 240.67,-146 236.83,-146 233,-142.17 233,-138.33 233,-138.33 233,-130.67 233,-130.67 233,-126.83 236.83,-123 240.67,-123 240.67,-123 460.33,-123 460.33,-123 464.17,-123 468,-126.83 468,-130.67 468,-130.67 468,-138.33 468,-138.33 468,-142.17 464.17,-146 460.33,-146"/>
<text text-anchor="middle" x="350.5" y="-130.8" font-family="Arial" font-size="14.00" fill="#cfffac">components/HeaderComponent.vue</text>
</g>
<!-- App.vue&#45;&gt;components/HeaderComponent.vue -->
<g id="edge1" class="edge">
<title>App.vue&#45;&gt;components/HeaderComponent.vue</title>
<path fill="none" stroke="#757575" d="M179.51,-125.24C191.85,-125.92 206.83,-126.73 222.72,-127.6"/>
<polygon fill="#757575" stroke="#757575" points="222.54,-131.09 232.72,-128.14 222.93,-124.1 222.54,-131.09"/>
</g>
<!-- components/EditorPane.vue -->
<g id="node3" class="node">
<title>components/EditorPane.vue</title>
<path fill="none" stroke="#c6c5fe" d="M689.83,-130C689.83,-130 518.17,-130 518.17,-130 514.33,-130 510.5,-126.17 510.5,-122.33 510.5,-122.33 510.5,-114.67 510.5,-114.67 510.5,-110.83 514.33,-107 518.17,-107 518.17,-107 689.83,-107 689.83,-107 693.67,-107 697.5,-110.83 697.5,-114.67 697.5,-114.67 697.5,-122.33 697.5,-122.33 697.5,-126.17 693.67,-130 689.83,-130"/>
<text text-anchor="middle" x="604" y="-114.8" font-family="Arial" font-size="14.00" fill="#c6c5fe">components/EditorPane.vue</text>
</g>
<!-- components/EditorToolbar.vue -->
<g id="node4" class="node">
<title>components/EditorToolbar.vue</title>
<path fill="none" stroke="#cfffac" d="M937.83,-182C937.83,-182 754.17,-182 754.17,-182 750.33,-182 746.5,-178.17 746.5,-174.33 746.5,-174.33 746.5,-166.67 746.5,-166.67 746.5,-162.83 750.33,-159 754.17,-159 754.17,-159 937.83,-159 937.83,-159 941.67,-159 945.5,-162.83 945.5,-166.67 945.5,-166.67 945.5,-174.33 945.5,-174.33 945.5,-178.17 941.67,-182 937.83,-182"/>
<text text-anchor="middle" x="846" y="-166.8" font-family="Arial" font-size="14.00" fill="#cfffac">components/EditorToolbar.vue</text>
</g>
<!-- components/EditorPane.vue&#45;&gt;components/EditorToolbar.vue -->
<g id="edge2" class="edge">
<title>components/EditorPane.vue&#45;&gt;components/EditorToolbar.vue</title>
<path fill="none" stroke="#757575" d="M651.43,-130.05C677.42,-136.37 710.44,-144.18 740,-150.5 750.35,-152.71 761.3,-154.93 772.07,-157.04"/>
<polygon fill="#757575" stroke="#757575" points="771.41,-160.48 781.89,-158.95 772.74,-153.61 771.41,-160.48"/>
</g>
<!-- components/PromptInput.vue -->
<g id="node5" class="node">
<title>components/PromptInput.vue</title>
<path fill="none" stroke="#cfffac" d="M935.33,-141C935.33,-141 756.67,-141 756.67,-141 752.83,-141 749,-137.17 749,-133.33 749,-133.33 749,-125.67 749,-125.67 749,-121.83 752.83,-118 756.67,-118 756.67,-118 935.33,-118 935.33,-118 939.17,-118 943,-121.83 943,-125.67 943,-125.67 943,-133.33 943,-133.33 943,-137.17 939.17,-141 935.33,-141"/>
<text text-anchor="middle" x="846" y="-125.8" font-family="Arial" font-size="14.00" fill="#cfffac">components/PromptInput.vue</text>
</g>
<!-- components/EditorPane.vue&#45;&gt;components/PromptInput.vue -->
<g id="edge3" class="edge">
<title>components/EditorPane.vue&#45;&gt;components/PromptInput.vue</title>
<path fill="none" stroke="#757575" d="M697.79,-122.75C711.14,-123.36 724.96,-124 738.55,-124.62"/>
<polygon fill="#757575" stroke="#757575" points="738.74,-128.13 748.89,-125.09 739.06,-121.14 738.74,-128.13"/>
</g>
<!-- components/TextEditor.vue -->
<g id="node6" class="node">
<title>components/TextEditor.vue</title>
<path fill="none" stroke="#cfffac" d="M927.83,-100C927.83,-100 764.17,-100 764.17,-100 760.33,-100 756.5,-96.17 756.5,-92.33 756.5,-92.33 756.5,-84.67 756.5,-84.67 756.5,-80.83 760.33,-77 764.17,-77 764.17,-77 927.83,-77 927.83,-77 931.67,-77 935.5,-80.83 935.5,-84.67 935.5,-84.67 935.5,-92.33 935.5,-92.33 935.5,-96.17 931.67,-100 927.83,-100"/>
<text text-anchor="middle" x="846" y="-84.8" font-family="Arial" font-size="14.00" fill="#cfffac">components/TextEditor.vue</text>
</g>
<!-- components/EditorPane.vue&#45;&gt;components/TextEditor.vue -->
<g id="edge4" class="edge">
<title>components/EditorPane.vue&#45;&gt;components/TextEditor.vue</title>
<path fill="none" stroke="#757575" d="M697.1,-106.99C713.2,-104.98 730,-102.88 746.26,-100.84"/>
<polygon fill="#757575" stroke="#757575" points="746.82,-104.3 756.3,-99.59 745.95,-97.35 746.82,-104.3"/>
</g>
<!-- components/PreviewPane.vue -->
<g id="node7" class="node">
<title>components/PreviewPane.vue</title>
<path fill="none" stroke="#c6c5fe" d="M696.33,-79C696.33,-79 511.67,-79 511.67,-79 507.83,-79 504,-75.17 504,-71.33 504,-71.33 504,-63.67 504,-63.67 504,-59.83 507.83,-56 511.67,-56 511.67,-56 696.33,-56 696.33,-56 700.17,-56 704,-59.83 704,-63.67 704,-63.67 704,-71.33 704,-71.33 704,-75.17 700.17,-79 696.33,-79"/>
<text text-anchor="middle" x="604" y="-63.8" font-family="Arial" font-size="14.00" fill="#c6c5fe">components/PreviewPane.vue</text>
</g>
<!-- components/PreviewToolbar.vue -->
<g id="node8" class="node">
<title>components/PreviewToolbar.vue</title>
<path fill="none" stroke="#cfffac" d="M944.33,-59C944.33,-59 747.67,-59 747.67,-59 743.83,-59 740,-55.17 740,-51.33 740,-51.33 740,-43.67 740,-43.67 740,-39.83 743.83,-36 747.67,-36 747.67,-36 944.33,-36 944.33,-36 948.17,-36 952,-39.83 952,-43.67 952,-43.67 952,-51.33 952,-51.33 952,-55.17 948.17,-59 944.33,-59"/>
<text text-anchor="middle" x="846" y="-43.8" font-family="Arial" font-size="14.00" fill="#cfffac">components/PreviewToolbar.vue</text>
</g>
<!-- components/PreviewPane.vue&#45;&gt;components/PreviewToolbar.vue -->
<g id="edge5" class="edge">
<title>components/PreviewPane.vue&#45;&gt;components/PreviewToolbar.vue</title>
<path fill="none" stroke="#757575" d="M704,-59.25C712.45,-58.55 721.04,-57.83 729.59,-57.12"/>
<polygon fill="#757575" stroke="#757575" points="729.94,-60.6 739.62,-56.28 729.36,-53.62 729.94,-60.6"/>
</g>
<!-- main.js -->
<g id="node9" class="node">
<title>main.js</title>
<path fill="none" stroke="#c6c5fe" d="M52.33,-84C52.33,-84 7.67,-84 7.67,-84 3.83,-84 0,-80.17 0,-76.33 0,-76.33 0,-68.67 0,-68.67 0,-64.83 3.83,-61 7.67,-61 7.67,-61 52.33,-61 52.33,-61 56.17,-61 60,-64.83 60,-68.67 60,-68.67 60,-76.33 60,-76.33 60,-80.17 56.17,-84 52.33,-84"/>
<text text-anchor="middle" x="30" y="-68.8" font-family="Arial" font-size="14.00" fill="#c6c5fe">main.js</text>
</g>
<!-- main.js&#45;&gt;App.vue -->
<g id="edge6" class="edge">
<title>main.js&#45;&gt;App.vue</title>
<path fill="none" stroke="#757575" d="M56.98,-84.07C72.79,-91.12 93.19,-100.2 110.42,-107.88"/>
<polygon fill="#757575" stroke="#757575" points="109.06,-111.1 119.62,-111.97 111.91,-104.71 109.06,-111.1"/>
</g>
<!-- router/index.js -->
<g id="node10" class="node">
<title>router/index.js</title>
<path fill="none" stroke="#c6c5fe" d="M189.33,-84C189.33,-84 103.67,-84 103.67,-84 99.83,-84 96,-80.17 96,-76.33 96,-76.33 96,-68.67 96,-68.67 96,-64.83 99.83,-61 103.67,-61 103.67,-61 189.33,-61 189.33,-61 193.17,-61 197,-64.83 197,-68.67 197,-68.67 197,-76.33 197,-76.33 197,-80.17 193.17,-84 189.33,-84"/>
<text text-anchor="middle" x="146.5" y="-68.8" font-family="Arial" font-size="14.00" fill="#c6c5fe">router/index.js</text>
</g>
<!-- main.js&#45;&gt;router/index.js -->
<g id="edge7" class="edge">
<title>main.js&#45;&gt;router/index.js</title>
<path fill="none" stroke="#757575" d="M60.19,-72.5C68.08,-72.5 76.93,-72.5 85.84,-72.5"/>
<polygon fill="#757575" stroke="#757575" points="85.9,-76 95.9,-72.5 85.9,-69 85.9,-76"/>
</g>
<!-- style.css -->
<g id="node11" class="node">
<title>style.css</title>
<path fill="none" stroke="#cfffac" d="M172.83,-43C172.83,-43 120.17,-43 120.17,-43 116.33,-43 112.5,-39.17 112.5,-35.33 112.5,-35.33 112.5,-27.67 112.5,-27.67 112.5,-23.83 116.33,-20 120.17,-20 120.17,-20 172.83,-20 172.83,-20 176.67,-20 180.5,-23.83 180.5,-27.67 180.5,-27.67 180.5,-35.33 180.5,-35.33 180.5,-39.17 176.67,-43 172.83,-43"/>
<text text-anchor="middle" x="146.5" y="-27.8" font-family="Arial" font-size="14.00" fill="#cfffac">style.css</text>
</g>
<!-- main.js&#45;&gt;style.css -->
<g id="edge8" class="edge">
<title>main.js&#45;&gt;style.css</title>
<path fill="none" stroke="#757575" d="M60.19,-62.05C73.32,-57.34 89.08,-51.7 103.45,-46.56"/>
<polygon fill="#757575" stroke="#757575" points="104.9,-49.76 113.14,-43.09 102.54,-43.16 104.9,-49.76"/>
</g>
<!-- views/ChatUMLView.vue -->
<g id="node12" class="node">
<title>views/ChatUMLView.vue</title>
<path fill="none" stroke="#c6c5fe" d="M425.33,-105C425.33,-105 275.67,-105 275.67,-105 271.83,-105 268,-101.17 268,-97.33 268,-97.33 268,-89.67 268,-89.67 268,-85.83 271.83,-82 275.67,-82 275.67,-82 425.33,-82 425.33,-82 429.17,-82 433,-85.83 433,-89.67 433,-89.67 433,-97.33 433,-97.33 433,-101.17 429.17,-105 425.33,-105"/>
<text text-anchor="middle" x="350.5" y="-89.8" font-family="Arial" font-size="14.00" fill="#c6c5fe">views/ChatUMLView.vue</text>
</g>
<!-- router/index.js&#45;&gt;views/ChatUMLView.vue -->
<g id="edge9" class="edge">
<title>router/index.js&#45;&gt;views/ChatUMLView.vue</title>
<path fill="none" stroke="#757575" d="M197.17,-77.66C215.44,-79.56 236.77,-81.78 257.57,-83.94"/>
<polygon fill="#757575" stroke="#757575" points="257.42,-87.45 267.73,-85 258.14,-80.48 257.42,-87.45"/>
</g>
<!-- views/HomeView.vue -->
<g id="node13" class="node">
<title>views/HomeView.vue</title>
<path fill="none" stroke="#cfffac" d="M415.33,-64C415.33,-64 285.67,-64 285.67,-64 281.83,-64 278,-60.17 278,-56.33 278,-56.33 278,-48.67 278,-48.67 278,-44.83 281.83,-41 285.67,-41 285.67,-41 415.33,-41 415.33,-41 419.17,-41 423,-44.83 423,-48.67 423,-48.67 423,-56.33 423,-56.33 423,-60.17 419.17,-64 415.33,-64"/>
<text text-anchor="middle" x="350.5" y="-48.8" font-family="Arial" font-size="14.00" fill="#cfffac">views/HomeView.vue</text>
</g>
<!-- router/index.js&#45;&gt;views/HomeView.vue -->
<g id="edge10" class="edge">
<title>router/index.js&#45;&gt;views/HomeView.vue</title>
<path fill="none" stroke="#757575" d="M197.17,-67.58C218.43,-65.48 243.83,-62.96 267.73,-60.6"/>
<polygon fill="#757575" stroke="#757575" points="268.26,-64.06 277.86,-59.59 267.57,-57.09 268.26,-64.06"/>
</g>
<!-- views/LoginView.vue -->
<g id="node14" class="node">
<title>views/LoginView.vue</title>
<path fill="none" stroke="#cfffac" d="M413.33,-23C413.33,-23 287.67,-23 287.67,-23 283.83,-23 280,-19.17 280,-15.33 280,-15.33 280,-7.67 280,-7.67 280,-3.83 283.83,0 287.67,0 287.67,0 413.33,0 413.33,0 417.17,0 421,-3.83 421,-7.67 421,-7.67 421,-15.33 421,-15.33 421,-19.17 417.17,-23 413.33,-23"/>
<text text-anchor="middle" x="350.5" y="-7.8" font-family="Arial" font-size="14.00" fill="#cfffac">views/LoginView.vue</text>
</g>
<!-- router/index.js&#45;&gt;views/LoginView.vue -->
<g id="edge11" class="edge">
<title>router/index.js&#45;&gt;views/LoginView.vue</title>
<path fill="none" stroke="#757575" d="M177.86,-60.92C184.25,-58.3 190.89,-55.42 197,-52.5 213.52,-44.61 215.76,-38.65 233,-32.5 244.68,-28.33 257.34,-24.96 269.85,-22.24"/>
<polygon fill="#757575" stroke="#757575" points="270.74,-25.63 279.83,-20.2 269.33,-18.78 270.74,-25.63"/>
</g>
<!-- views/ChatUMLView.vue&#45;&gt;components/EditorPane.vue -->
<g id="edge12" class="edge">
<title>views/ChatUMLView.vue&#45;&gt;components/EditorPane.vue</title>
<path fill="none" stroke="#757575" d="M433.15,-101.62C454.55,-103.74 477.89,-106.06 500.23,-108.28"/>
<polygon fill="#757575" stroke="#757575" points="500.12,-111.79 510.42,-109.3 500.81,-104.82 500.12,-111.79"/>
</g>
<!-- views/ChatUMLView.vue&#45;&gt;components/PreviewPane.vue -->
<g id="edge13" class="edge">
<title>views/ChatUMLView.vue&#45;&gt;components/PreviewPane.vue</title>
<path fill="none" stroke="#757575" d="M433.15,-85.06C452.42,-83.07 473.26,-80.91 493.53,-78.82"/>
<polygon fill="#757575" stroke="#757575" points="494.16,-82.27 503.75,-77.76 493.44,-75.31 494.16,-82.27"/>
</g>
</g>
</svg>
